<svg width="34" height="16" viewBox="0 0 34 16" fill="none" xmlns="http://www.w3.org/2000/svg">
<path fill-rule="evenodd" clip-rule="evenodd" d="M6.21247 2.60203C5.81399 3.09339 5.17642 3.48094 4.53885 3.42558C4.45915 2.7612 4.7713 2.05531 5.13657 1.61931C5.53505 1.11411 6.2324 0.754245 6.79692 0.726562C6.86333 1.41862 6.60432 2.09683 6.21247 2.60203ZM12.1233 1.55007V12.3392H13.7305V8.65054H15.9554C17.9876 8.65054 19.4155 7.19723 19.4155 5.09339C19.4155 2.98954 18.0142 1.55007 16.0085 1.55007H12.1233ZM15.5833 2.96191H13.7304V7.24572H15.5767C16.978 7.24572 17.775 6.4637 17.775 5.10035C17.775 3.73701 16.978 2.96191 15.5833 2.96191ZM22.3511 12.4223C23.3606 12.4223 24.297 11.8894 24.7221 11.0451H24.7553V12.3392H26.243V6.96889C26.243 5.41177 25.0475 4.4083 23.2078 4.4083C21.501 4.4083 20.2391 5.42561 20.1927 6.82356H21.6405C21.76 6.15919 22.3511 5.7232 23.1614 5.7232C24.1443 5.7232 24.6955 6.20072 24.6955 7.07962V7.67479L22.6898 7.79936C20.8236 7.91701 19.8141 8.71287 19.8141 10.097C19.8141 11.4949 20.8568 12.4223 22.3511 12.4223ZM21.3814 10.0554C21.3814 10.7129 21.9259 11.142 22.7827 11.142C23.8719 11.142 24.6954 10.4222 24.6954 9.41182V8.80281L22.9089 8.92046C21.906 8.98274 21.3814 9.37721 21.3814 10.0554ZM28.2287 15.2736C29.796 15.2736 30.5332 14.6507 31.1774 12.7614L34 4.51214H32.3662L30.4734 10.886H30.4402L28.5474 4.51214H26.8672L29.5901 12.367L29.444 12.8445C29.1983 13.6542 28.7998 13.9656 28.0892 13.9656C27.963 13.9656 27.7173 13.9518 27.6177 13.9379V15.2321C27.7106 15.2597 28.1091 15.2736 28.2287 15.2736ZM5.30205 3.90241C5.71602 3.73303 6.22854 3.52332 6.79023 3.557C7.14887 3.58468 8.18492 3.69541 8.84906 4.71965C8.84601 4.72204 8.83927 4.7266 8.82927 4.73338C8.66496 4.84472 7.62117 5.55204 7.63369 6.94807C7.64616 8.61128 8.94633 9.23152 9.11644 9.31268C9.12754 9.31797 9.13464 9.32181 9.13464 9.32181C9.13392 9.32406 9.1326 9.32851 9.13066 9.33505C9.09672 9.44946 8.8731 10.2034 8.36424 10.9758C7.8927 11.6956 7.40788 12.4015 6.63748 12.4153C6.27494 12.422 6.03072 12.3121 5.77641 12.1975C5.50896 12.0771 5.23034 11.9516 4.79118 11.9516C4.33624 11.9516 4.04488 12.0805 3.76442 12.2045C3.5208 12.3122 3.2854 12.4163 2.95816 12.4291C2.21432 12.4568 1.64981 11.6679 1.17827 10.9481C0.21527 9.49483 -0.521923 6.85118 0.474284 5.06568C0.959104 4.17293 1.84241 3.61237 2.79212 3.59853C3.20646 3.59068 3.60157 3.75424 3.94717 3.8973C4.21092 4.00648 4.44582 4.10373 4.63843 4.10373C4.81006 4.10373 5.03565 4.01142 5.30205 3.90241Z" fill="black"/>
</svg>
