<svg width="40" height="40" viewBox="0 0 40 40" fill="none" xmlns="http://www.w3.org/2000/svg">
<path d="M28.3333 3.33301H11.6666C7.06427 3.33301 3.33331 7.06397 3.33331 11.6663V28.333C3.33331 32.9354 7.06427 36.6663 11.6666 36.6663H28.3333C32.9357 36.6663 36.6666 32.9354 36.6666 28.333V11.6663C36.6666 7.06397 32.9357 3.33301 28.3333 3.33301Z" stroke="black" stroke-width="1.5" stroke-linecap="square"/>
<path d="M26.6667 18.9495C26.8724 20.3366 26.6355 21.7532 25.9896 22.9979C25.3438 24.2425 24.3219 25.2519 23.0694 25.8823C21.8169 26.5128 20.3974 26.7322 19.013 26.5094C17.6286 26.2866 16.3496 25.633 15.3581 24.6415C14.3665 23.6499 13.7129 22.371 13.4901 20.9865C13.2674 19.6021 13.4868 18.1827 14.1172 16.9301C14.7477 15.6776 15.757 14.6558 17.0017 14.0099C18.2463 13.3641 19.6629 13.1272 21.05 13.3329C22.4649 13.5427 23.7748 14.202 24.7862 15.2134C25.7976 16.2248 26.4569 17.5347 26.6667 18.9495Z" stroke="black" stroke-width="1.5" stroke-linecap="square"/>
<path d="M29.991 10.7111C30.0167 10.8845 29.9871 11.0616 29.9063 11.2171C29.8256 11.3727 29.6979 11.4989 29.5413 11.5777C29.3847 11.6565 29.2073 11.6839 29.0343 11.6561C28.8612 11.6282 28.7013 11.5465 28.5774 11.4226C28.4534 11.2986 28.3717 11.1388 28.3439 10.9657C28.3161 10.7927 28.3435 10.6152 28.4223 10.4587C28.5011 10.3021 28.6273 10.1744 28.7828 10.0936C28.9384 10.0129 29.1155 9.9833 29.2889 10.009C29.4657 10.0352 29.6295 10.1177 29.7559 10.2441C29.8823 10.3705 29.9647 10.5342 29.991 10.7111Z" stroke="black" stroke-width="1.5" stroke-linecap="square"/>
</svg>
