<svg width="66" height="16" viewBox="0 0 66 16" fill="none" xmlns="http://www.w3.org/2000/svg">
<path fill-rule="evenodd" clip-rule="evenodd" d="M51.2389 6.96666C51.0405 8.2693 50.0457 8.2693 49.0836 8.2693H48.536L48.92 5.83721C48.9431 5.69028 49.0699 5.58196 49.219 5.58196H49.4698C50.1248 5.58196 50.7435 5.58196 51.0626 5.95514C51.2534 6.17841 51.311 6.50934 51.2389 6.96666ZM50.8201 3.56823H47.1912C46.9431 3.56823 46.7319 3.74878 46.6931 3.99391L45.2259 13.299C45.1969 13.4825 45.3387 13.6485 45.5246 13.6485H47.3866C47.5602 13.6485 47.7082 13.5221 47.7351 13.3505L48.1511 10.7126C48.1899 10.4675 48.4011 10.287 48.6493 10.287H49.7975C52.1877 10.287 53.5675 9.13012 53.9281 6.83749C54.0903 5.83476 53.9345 5.04687 53.4649 4.49528C52.9488 3.88888 52.0344 3.56823 50.8201 3.56823Z" fill="#2790C3"/>
<path fill-rule="evenodd" clip-rule="evenodd" d="M59.2448 10.3071C59.0772 11.3001 58.2889 11.9666 57.2836 11.9666C56.7795 11.9666 56.3761 11.8045 56.1167 11.4976C55.8597 11.1933 55.7631 10.7598 55.8446 10.277C56.001 9.29304 56.8019 8.60493 57.7919 8.60493C58.2852 8.60493 58.6859 8.76868 58.9504 9.0784C59.2166 9.3904 59.321 9.82684 59.2448 10.3071ZM61.6665 6.92505H59.9289C59.7801 6.92505 59.6533 7.03318 59.6302 7.18044L59.5538 7.66631L59.4324 7.49018C59.0559 6.94397 58.2174 6.76146 57.3796 6.76146C55.4601 6.76146 53.8202 8.21626 53.501 10.2568C53.335 11.2746 53.5707 12.2473 54.1477 12.9263C54.6781 13.5501 55.4348 13.8098 56.3363 13.8098C57.8837 13.8098 58.7419 12.8157 58.7419 12.8157L58.6644 13.2986C58.6353 13.4823 58.7771 13.6485 58.9633 13.6485H60.5279C60.776 13.6485 60.9873 13.4681 61.026 13.223L61.9652 7.27454C61.9943 7.0909 61.8525 6.92505 61.6665 6.92505Z" fill="#2790C3"/>
<path fill-rule="evenodd" clip-rule="evenodd" d="M63.7147 3.82381L62.2252 13.299C62.1964 13.4826 62.3382 13.6485 62.5242 13.6485H64.022C64.2701 13.6485 64.4814 13.468 64.5201 13.223L65.9887 3.91791C66.0174 3.73427 65.8756 3.56823 65.6897 3.56823H64.0134C63.8646 3.56823 63.7378 3.67668 63.7147 3.82381Z" fill="#2790C3"/>
<path fill-rule="evenodd" clip-rule="evenodd" d="M25.3564 6.96665C25.158 8.26929 24.1631 8.26929 23.201 8.26929H22.6535L23.0375 5.83721C23.0608 5.69028 23.1875 5.58196 23.3362 5.58196H23.5872C24.2422 5.58196 24.861 5.58196 25.1799 5.95513C25.3709 6.17841 25.4286 6.50933 25.3564 6.96665ZM24.9377 3.56823H21.3086C21.0606 3.56823 20.8494 3.74877 20.8107 3.9939L19.3432 13.299C19.3143 13.4825 19.4562 13.6485 19.642 13.6485H21.3747C21.6228 13.6485 21.8341 13.468 21.8728 13.223L22.2688 10.7126C22.3073 10.4675 22.5186 10.287 22.7667 10.287H23.9151C26.3052 10.287 27.6848 9.13012 28.0454 6.83748C28.2077 5.83476 28.0521 5.04687 27.5825 4.49528C27.0661 3.88887 26.1516 3.56823 24.9377 3.56823Z" fill="#27346A"/>
<path fill-rule="evenodd" clip-rule="evenodd" d="M33.3624 10.3071C33.1945 11.3001 32.4063 11.9666 31.4009 11.9666C30.8971 11.9666 30.4934 11.8045 30.2343 11.4976C29.9773 11.1933 29.8804 10.7597 29.962 10.277C30.1183 9.29303 30.9192 8.60493 31.9092 8.60493C32.4028 8.60493 32.8032 8.76868 33.0677 9.07839C33.3341 9.3904 33.4386 9.82683 33.3624 10.3071ZM35.7841 6.92505H34.0465C33.8974 6.92505 33.7709 7.03318 33.7475 7.18043L33.6711 7.66631L33.5497 7.49017C33.1735 6.94397 32.3347 6.76146 31.4972 6.76146C29.5774 6.76146 27.9375 8.21625 27.6183 10.2568C27.4523 11.2746 27.688 12.2473 28.2652 12.9263C28.7954 13.5501 29.5521 13.8098 30.4536 13.8098C32.0013 13.8098 32.8594 12.8157 32.8594 12.8157L32.7817 13.2986C32.7529 13.4823 32.8947 13.6485 33.0806 13.6485H34.6455C34.8936 13.6485 35.1049 13.4681 35.1434 13.223L36.0828 7.27454C36.1119 7.0909 35.9701 6.92505 35.7841 6.92505Z" fill="#27346A"/>
<path fill-rule="evenodd" clip-rule="evenodd" d="M45.0387 6.92505H43.2922C43.1254 6.92505 42.969 7.00791 42.8751 7.14604L40.466 10.6945L39.4448 7.28468C39.381 7.07134 39.1845 6.92505 38.962 6.92505H37.2451C37.0376 6.92505 36.8918 7.12892 36.9585 7.32513L38.8818 12.9702L37.0729 15.5226C36.9308 15.7229 37.0742 16 37.3196 16H39.0645C39.23 16 39.3848 15.9189 39.4789 15.7829L45.2876 7.39997C45.4265 7.19938 45.2831 6.92505 45.0387 6.92505Z" fill="#27346A"/>
<path fill-rule="evenodd" clip-rule="evenodd" d="M6.86992 15.3403L7.35773 12.247L7.38922 12.0756C7.41269 11.9265 7.48903 11.7902 7.60402 11.692C7.71898 11.5938 7.86562 11.5397 8.01681 11.5397H8.40416C9.04986 11.5397 9.64302 11.4707 10.1674 11.3346C10.7268 11.1897 11.2244 10.9638 11.6462 10.6638C12.0934 10.3458 12.469 9.93464 12.7627 9.44209C13.0726 8.92245 13.3001 8.29683 13.4391 7.5828C13.5619 6.95226 13.5849 6.38781 13.5077 5.90487C13.426 5.39472 13.2295 4.95941 12.9237 4.6107C12.7382 4.39951 12.5009 4.21651 12.2185 4.06678L12.2118 4.0632L12.2116 4.05505C12.3103 3.42566 12.3065 2.90066 12.2004 2.44871C12.0937 1.9958 11.8778 1.58822 11.5397 1.20299C10.8392 0.404802 9.56506 0 7.75292 0H2.77605C2.6097 0 2.44824 0.0595301 2.32167 0.167662C2.19511 0.275795 2.11128 0.426005 2.08519 0.590406L0.0128963 13.7315C-0.00602279 13.8514 0.0283903 13.9732 0.107328 14.0652C0.186267 14.1577 0.301087 14.2107 0.422428 14.2107H3.50998L3.50721 14.2253L3.29518 15.5699C3.27887 15.6744 3.30888 15.7805 3.37756 15.8607C3.4462 15.9411 3.5462 15.9874 3.65188 15.9874H6.2415C6.38682 15.9874 6.52759 15.9354 6.63801 15.841C6.74842 15.7465 6.82181 15.6156 6.84447 15.4722L6.86992 15.3403Z" fill="#27346A"/>
<path fill-rule="evenodd" clip-rule="evenodd" d="M12.2242 4.05553C12.2094 4.15061 12.1929 4.24733 12.1734 4.34698C11.5172 7.71671 9.27174 8.88168 6.40386 8.88168H4.94349C4.59317 8.88168 4.29731 9.13676 4.24268 9.48286L3.28286 15.5681C3.24715 15.7948 3.42247 16 3.65194 16H6.24175C6.54821 16 6.80916 15.777 6.85693 15.4742L6.88238 15.3425L7.37019 12.249L7.40168 12.078C7.44947 11.7752 7.71043 11.5522 8.01686 11.5522H8.40421C10.9131 11.5522 12.8776 10.5329 13.4517 7.58509C13.6914 6.35339 13.5675 5.32524 12.9332 4.60239C12.7414 4.38384 12.5026 4.20298 12.2242 4.05553Z" fill="#2790C3"/>
<path fill-rule="evenodd" clip-rule="evenodd" d="M11.5374 3.78182C11.4374 3.75246 11.3341 3.72623 11.2276 3.70257C11.1211 3.67892 11.0117 3.65803 10.8992 3.63995C10.5051 3.57649 10.0742 3.54617 9.61199 3.54617H5.71093C5.61518 3.54617 5.52385 3.56802 5.44199 3.60715C5.26209 3.69345 5.1285 3.86387 5.09573 4.07214L4.26655 9.32937L4.24268 9.48286C4.29731 9.13676 4.59317 8.88168 4.94349 8.88168H6.40386C9.27174 8.88168 11.5172 7.71671 12.1734 4.34698C12.1929 4.24733 12.2094 4.15061 12.2242 4.05553C12.0585 3.96778 11.8784 3.89208 11.685 3.82781C11.6365 3.81167 11.5874 3.79636 11.5374 3.78182Z" fill="#1F264F"/>
</svg>
