<svg width="38" height="12" viewBox="0 0 38 12" fill="none" xmlns="http://www.w3.org/2000/svg">
<path fill-rule="evenodd" clip-rule="evenodd" d="M9.86888 11.9065H6.7078L4.33738 2.59724C4.22487 2.16901 3.98598 1.79044 3.63458 1.61201C2.75762 1.16361 1.79127 0.80676 0.737061 0.626781V0.268375H5.8293C6.5321 0.268375 7.0592 0.80676 7.14706 1.43203L8.37696 8.14711L11.5365 0.268375H14.6097L9.86888 11.9065ZM16.3667 11.9065H13.3814L15.8396 0.268375H18.825L16.3667 11.9065ZM22.6873 3.49252C22.7752 2.8657 23.3023 2.50729 23.9172 2.50729C24.8836 2.4173 25.9363 2.59728 26.8148 3.04413L27.3419 0.538385C26.4634 0.179979 25.497 0 24.6201 0C21.7225 0 19.6141 1.61205 19.6141 3.84938C19.6141 5.55142 21.1076 6.44511 22.1618 6.9835C23.3023 7.52033 23.7415 7.87874 23.6537 8.41557C23.6537 9.22082 22.7752 9.57923 21.8982 9.57923C20.844 9.57923 19.7898 9.31081 18.825 8.86241L18.2979 11.3697C19.3521 11.8166 20.4926 11.9965 21.5468 11.9965C24.7958 12.085 26.8148 10.4745 26.8148 8.05716C26.8148 5.01304 22.6873 4.83461 22.6873 3.49252ZM37.2628 11.9065L34.8924 0.268375H32.3463C31.8192 0.268375 31.2921 0.626781 31.1164 1.16362L26.7269 11.9065H29.8001L30.4136 10.206H34.1896L34.541 11.9065H37.2628ZM32.7855 3.40258L33.6624 7.7888H31.2042L32.7855 3.40258Z" fill="#1434CB"/>
</svg>
