<svg width="40" height="40" viewBox="0 0 40 40" fill="none" xmlns="http://www.w3.org/2000/svg">
<path d="M37.5667 10.7003C37.3687 9.90934 36.9655 9.18461 36.3978 8.59934C35.83 8.01406 35.1179 7.58897 34.3333 7.36699C31.4667 6.66699 20 6.66699 20 6.66699C20 6.66699 8.53333 6.66699 5.66666 7.43366C4.88208 7.65563 4.16996 8.08073 3.60224 8.666C3.03452 9.25128 2.63131 9.97601 2.43333 10.767C1.90869 13.6763 1.65206 16.6275 1.66666 19.5837C1.64796 22.5621 1.90461 25.5358 2.43333 28.467C2.6516 29.2334 3.06384 29.9306 3.63024 30.4911C4.19663 31.0517 4.89803 31.4567 5.66666 31.667C8.53333 32.4337 20 32.4337 20 32.4337C20 32.4337 31.4667 32.4337 34.3333 31.667C35.1179 31.445 35.83 31.0199 36.3978 30.4346C36.9655 29.8494 37.3687 29.1246 37.5667 28.3337C38.0873 25.4463 38.3439 22.5175 38.3333 19.5837C38.352 16.6053 38.0954 13.6315 37.5667 10.7003V10.7003Z" stroke="black" stroke-width="1.5" stroke-linecap="square"/>
<path d="M16.25 25.0338L25.8333 19.5838L16.25 14.1338V25.0338Z" stroke="black" stroke-width="1.5" stroke-linecap="square"/>
</svg>
